<mxfile host="Electron" modified="2024-03-09T23:14:04.395Z" agent="Mozilla/5.0 (Windows NT 10.0; Win64; x64) AppleWebKit/537.36 (KHTML, like Gecko) draw.io/23.1.5 Chrome/120.0.6099.109 Electron/28.1.0 Safari/537.36" etag="RV0ZORGELfZSAFppkB7L" version="23.1.5" type="device" pages="2">
  <diagram id="R2lEEEUBdFMjLlhIrx00" name="Data Path">
    <mxGraphModel dx="1434" dy="836" grid="1" gridSize="10" guides="1" tooltips="1" connect="1" arrows="1" fold="1" page="1" pageScale="1" pageWidth="1700" pageHeight="1100" math="0" shadow="0" extFonts="Permanent Marker^https://fonts.googleapis.com/css?family=Permanent+Marker">
      <root>
        <mxCell id="0" />
        <mxCell id="1" parent="0" />
        <mxCell id="wMOnWl37XSj11jP713QI-9" value="FT2232?&lt;br&gt;USB-UART bridge" style="rounded=0;whiteSpace=wrap;html=1;" parent="1" vertex="1">
          <mxGeometry x="636" y="592.5" width="120" height="60" as="geometry" />
        </mxCell>
        <mxCell id="wMOnWl37XSj11jP713QI-11" value="&amp;nbsp; &amp;nbsp;USB-C 2.0 &lt;br&gt;&amp;nbsp; &amp;nbsp;Receptacle" style="rounded=0;whiteSpace=wrap;html=1;align=left;" parent="1" vertex="1">
          <mxGeometry x="435" y="592.5" width="140" height="60" as="geometry" />
        </mxCell>
        <mxCell id="wMOnWl37XSj11jP713QI-14" style="edgeStyle=orthogonalEdgeStyle;rounded=0;orthogonalLoop=1;jettySize=auto;html=1;entryX=0;entryY=0.5;entryDx=0;entryDy=0;" parent="1" source="wMOnWl37XSj11jP713QI-13" target="wMOnWl37XSj11jP713QI-9" edge="1">
          <mxGeometry relative="1" as="geometry" />
        </mxCell>
        <mxCell id="wMOnWl37XSj11jP713QI-13" value="D+/-" style="whiteSpace=wrap;html=1;aspect=fixed;" parent="1" vertex="1">
          <mxGeometry x="535" y="602.5" width="40" height="40" as="geometry" />
        </mxCell>
        <mxCell id="465dUBvNF7ZcCZ9cSyCv-4" style="edgeStyle=orthogonalEdgeStyle;rounded=0;orthogonalLoop=1;jettySize=auto;html=1;entryX=1;entryY=0.5;entryDx=0;entryDy=0;exitX=0;exitY=0.25;exitDx=0;exitDy=0;" parent="1" source="wMOnWl37XSj11jP713QI-15" target="KRrXA6NS5M0XdtmwibU5-9" edge="1">
          <mxGeometry relative="1" as="geometry" />
        </mxCell>
        <mxCell id="tx2Wy5a_AxNPYO6ndvp1-3" style="edgeStyle=orthogonalEdgeStyle;rounded=0;orthogonalLoop=1;jettySize=auto;html=1;entryX=1;entryY=0.5;entryDx=0;entryDy=0;exitX=0;exitY=0.25;exitDx=0;exitDy=0;" parent="1" source="wMOnWl37XSj11jP713QI-15" target="tx2Wy5a_AxNPYO6ndvp1-1" edge="1">
          <mxGeometry relative="1" as="geometry" />
        </mxCell>
        <mxCell id="wMOnWl37XSj11jP713QI-15" value="&lt;div style=&quot;text-align: justify;&quot;&gt;&lt;span style=&quot;background-color: initial;&quot;&gt;RP2040&lt;/span&gt;&lt;/div&gt;" style="rounded=0;whiteSpace=wrap;html=1;" parent="1" vertex="1">
          <mxGeometry x="895" y="500" width="260" height="145" as="geometry" />
        </mxCell>
        <mxCell id="465dUBvNF7ZcCZ9cSyCv-5" value="chip comms" style="edgeStyle=orthogonalEdgeStyle;rounded=0;orthogonalLoop=1;jettySize=auto;html=1;entryX=0.225;entryY=0.992;entryDx=0;entryDy=0;exitX=0.25;exitY=0;exitDx=0;exitDy=0;entryPerimeter=0;startArrow=classic;startFill=1;" parent="1" source="wMOnWl37XSj11jP713QI-16" target="wMOnWl37XSj11jP713QI-15" edge="1">
          <mxGeometry relative="1" as="geometry" />
        </mxCell>
        <mxCell id="465dUBvNF7ZcCZ9cSyCv-6" style="edgeStyle=orthogonalEdgeStyle;rounded=0;orthogonalLoop=1;jettySize=auto;html=1;entryX=0;entryY=0.5;entryDx=0;entryDy=0;" parent="1" source="wMOnWl37XSj11jP713QI-16" target="wMOnWl37XSj11jP713QI-45" edge="1">
          <mxGeometry relative="1" as="geometry" />
        </mxCell>
        <mxCell id="wMOnWl37XSj11jP713QI-16" value="&lt;div style=&quot;&quot;&gt;&lt;span style=&quot;background-color: initial;&quot;&gt;ESP8684 with integrated antenna&lt;/span&gt;&lt;/div&gt;" style="rounded=0;whiteSpace=wrap;html=1;align=center;" parent="1" vertex="1">
          <mxGeometry x="917" y="720" width="145" height="55" as="geometry" />
        </mxCell>
        <mxCell id="wMOnWl37XSj11jP713QI-17" value="1" style="whiteSpace=wrap;html=1;aspect=fixed;" parent="1" vertex="1">
          <mxGeometry x="756" y="592.5" width="30" height="30" as="geometry" />
        </mxCell>
        <mxCell id="wMOnWl37XSj11jP713QI-18" value="2" style="whiteSpace=wrap;html=1;aspect=fixed;" parent="1" vertex="1">
          <mxGeometry x="756" y="622.5" width="30" height="30" as="geometry" />
        </mxCell>
        <mxCell id="wMOnWl37XSj11jP713QI-19" value="UART" style="edgeStyle=orthogonalEdgeStyle;rounded=0;orthogonalLoop=1;jettySize=auto;html=1;entryX=0;entryY=0.75;entryDx=0;entryDy=0;" parent="1" source="wMOnWl37XSj11jP713QI-17" target="wMOnWl37XSj11jP713QI-15" edge="1">
          <mxGeometry relative="1" as="geometry" />
        </mxCell>
        <mxCell id="wMOnWl37XSj11jP713QI-20" value="UART" style="edgeStyle=orthogonalEdgeStyle;rounded=0;orthogonalLoop=1;jettySize=auto;html=1;entryX=0;entryY=0.5;entryDx=0;entryDy=0;" parent="1" source="wMOnWl37XSj11jP713QI-18" target="wMOnWl37XSj11jP713QI-16" edge="1">
          <mxGeometry relative="1" as="geometry">
            <mxPoint x="745" y="716.0144927536231" as="sourcePoint" />
            <mxPoint x="895" y="715" as="targetPoint" />
            <Array as="points">
              <mxPoint x="840" y="638" />
              <mxPoint x="840" y="748" />
            </Array>
          </mxGeometry>
        </mxCell>
        <mxCell id="wMOnWl37XSj11jP713QI-23" value="RTC Chip&lt;br&gt;PCF85263AT?" style="rounded=0;whiteSpace=wrap;html=1;" parent="1" vertex="1">
          <mxGeometry x="666" y="506" width="120" height="60" as="geometry" />
        </mxCell>
        <mxCell id="wMOnWl37XSj11jP713QI-25" style="edgeStyle=orthogonalEdgeStyle;rounded=0;orthogonalLoop=1;jettySize=auto;html=1;" parent="1" source="wMOnWl37XSj11jP713QI-24" target="wMOnWl37XSj11jP713QI-23" edge="1">
          <mxGeometry relative="1" as="geometry" />
        </mxCell>
        <mxCell id="wMOnWl37XSj11jP713QI-24" value="Battery backup&lt;br&gt;li-on or supercap?" style="rounded=0;whiteSpace=wrap;html=1;" parent="1" vertex="1">
          <mxGeometry x="455" y="506" width="120" height="60" as="geometry" />
        </mxCell>
        <mxCell id="wMOnWl37XSj11jP713QI-29" value="I2C" style="edgeStyle=orthogonalEdgeStyle;rounded=0;orthogonalLoop=1;jettySize=auto;html=1;entryX=0;entryY=0.25;entryDx=0;entryDy=0;startArrow=classic;startFill=1;endArrow=none;endFill=0;" parent="1" source="wMOnWl37XSj11jP713QI-23" target="wMOnWl37XSj11jP713QI-15" edge="1">
          <mxGeometry relative="1" as="geometry">
            <Array as="points">
              <mxPoint x="810" y="536" />
              <mxPoint x="810" y="536" />
            </Array>
          </mxGeometry>
        </mxCell>
        <mxCell id="wMOnWl37XSj11jP713QI-41" value="E-Ink screen&lt;br&gt;PN?" style="rounded=0;whiteSpace=wrap;html=1;" parent="1" vertex="1">
          <mxGeometry x="1240" y="500" width="110" height="60" as="geometry" />
        </mxCell>
        <mxCell id="wMOnWl37XSj11jP713QI-45" value="WIFI/BLE" style="text;html=1;align=center;verticalAlign=middle;whiteSpace=wrap;rounded=0;" parent="1" vertex="1">
          <mxGeometry x="1100" y="732.5" width="60" height="30" as="geometry" />
        </mxCell>
        <mxCell id="KRrXA6NS5M0XdtmwibU5-3" style="edgeStyle=orthogonalEdgeStyle;rounded=0;orthogonalLoop=1;jettySize=auto;html=1;entryX=0;entryY=0.5;entryDx=0;entryDy=0;" parent="1" source="wMOnWl37XSj11jP713QI-48" target="KRrXA6NS5M0XdtmwibU5-2" edge="1">
          <mxGeometry relative="1" as="geometry" />
        </mxCell>
        <mxCell id="KRrXA6NS5M0XdtmwibU5-7" value="PWM" style="edgeLabel;html=1;align=center;verticalAlign=middle;resizable=0;points=[];" parent="KRrXA6NS5M0XdtmwibU5-3" vertex="1" connectable="0">
          <mxGeometry x="0.0609" y="-1" relative="1" as="geometry">
            <mxPoint x="-11" y="-2" as="offset" />
          </mxGeometry>
        </mxCell>
        <mxCell id="wMOnWl37XSj11jP713QI-48" value="PIO SMs" style="rounded=0;whiteSpace=wrap;html=1;" parent="1" vertex="1">
          <mxGeometry x="1090" y="600" width="65" height="45" as="geometry" />
        </mxCell>
        <mxCell id="z3xZdLynoYUoiguRZ6o--5" style="edgeStyle=orthogonalEdgeStyle;rounded=0;orthogonalLoop=1;jettySize=auto;html=1;" parent="1" source="wMOnWl37XSj11jP713QI-49" target="wMOnWl37XSj11jP713QI-41" edge="1">
          <mxGeometry relative="1" as="geometry" />
        </mxCell>
        <mxCell id="z3xZdLynoYUoiguRZ6o--6" value="SPI" style="edgeLabel;html=1;align=center;verticalAlign=middle;resizable=0;points=[];" parent="z3xZdLynoYUoiguRZ6o--5" vertex="1" connectable="0">
          <mxGeometry x="-0.0231" y="-1" relative="1" as="geometry">
            <mxPoint as="offset" />
          </mxGeometry>
        </mxCell>
        <mxCell id="wMOnWl37XSj11jP713QI-49" value="PIO? or hard peripheral" style="rounded=0;whiteSpace=wrap;html=1;" parent="1" vertex="1">
          <mxGeometry x="1090" y="500" width="65" height="60" as="geometry" />
        </mxCell>
        <mxCell id="KRrXA6NS5M0XdtmwibU5-2" value="Buzzer&lt;br&gt;PN?" style="rounded=0;whiteSpace=wrap;html=1;" parent="1" vertex="1">
          <mxGeometry x="1241" y="593" width="110" height="60" as="geometry" />
        </mxCell>
        <mxCell id="KRrXA6NS5M0XdtmwibU5-9" value="&lt;span style=&quot;font-weight: normal;&quot;&gt;EEPROM&lt;br&gt;PN?&lt;/span&gt;" style="rounded=0;whiteSpace=wrap;html=1;fontStyle=1" parent="1" vertex="1">
          <mxGeometry x="666" y="330" width="120" height="60" as="geometry" />
        </mxCell>
        <mxCell id="KRrXA6NS5M0XdtmwibU5-12" style="edgeStyle=orthogonalEdgeStyle;rounded=0;orthogonalLoop=1;jettySize=auto;html=1;entryX=0.231;entryY=0;entryDx=0;entryDy=0;entryPerimeter=0;" parent="1" source="KRrXA6NS5M0XdtmwibU5-11" target="wMOnWl37XSj11jP713QI-15" edge="1">
          <mxGeometry relative="1" as="geometry" />
        </mxCell>
        <mxCell id="KRrXA6NS5M0XdtmwibU5-11" value="Button x 4" style="rounded=0;whiteSpace=wrap;html=1;" parent="1" vertex="1">
          <mxGeometry x="912" y="350" width="85" height="40" as="geometry" />
        </mxCell>
        <mxCell id="bKKHbc3bsOOG26eRoQBU-3" style="edgeStyle=orthogonalEdgeStyle;rounded=0;orthogonalLoop=1;jettySize=auto;html=1;entryX=0;entryY=0.5;entryDx=0;entryDy=0;" parent="1" source="bKKHbc3bsOOG26eRoQBU-1" target="bKKHbc3bsOOG26eRoQBU-2" edge="1">
          <mxGeometry relative="1" as="geometry" />
        </mxCell>
        <mxCell id="z3xZdLynoYUoiguRZ6o--7" value="SPI / SDIO" style="edgeLabel;html=1;align=center;verticalAlign=middle;resizable=0;points=[];" parent="bKKHbc3bsOOG26eRoQBU-3" vertex="1" connectable="0">
          <mxGeometry x="-0.3567" y="-2" relative="1" as="geometry">
            <mxPoint as="offset" />
          </mxGeometry>
        </mxCell>
        <mxCell id="bKKHbc3bsOOG26eRoQBU-1" value="PIO SMs" style="rounded=0;whiteSpace=wrap;html=1;" parent="1" vertex="1">
          <mxGeometry x="1090" y="555" width="65" height="45" as="geometry" />
        </mxCell>
        <mxCell id="bKKHbc3bsOOG26eRoQBU-2" value="SD Card&lt;br&gt;PN?" style="rounded=0;whiteSpace=wrap;html=1;" parent="1" vertex="1">
          <mxGeometry x="1380" y="548" width="110" height="60" as="geometry" />
        </mxCell>
        <mxCell id="bKKHbc3bsOOG26eRoQBU-4" value="Is this battery backup and RTC redundant if we have RTC in the RP2040 and automatic battery backup already?&lt;br&gt;&lt;br&gt;Since we are going power saver route, we should have battery and RTC -D.T" style="text;html=1;align=center;verticalAlign=middle;whiteSpace=wrap;rounded=0;" parent="1" vertex="1">
          <mxGeometry x="350" y="380" width="250" height="110" as="geometry" />
        </mxCell>
        <mxCell id="465dUBvNF7ZcCZ9cSyCv-1" value="SWD Pins" style="rounded=0;whiteSpace=wrap;html=1;" parent="1" vertex="1">
          <mxGeometry x="995" y="621.5" width="60" height="23.5" as="geometry" />
        </mxCell>
        <mxCell id="465dUBvNF7ZcCZ9cSyCv-2" style="edgeStyle=orthogonalEdgeStyle;rounded=0;orthogonalLoop=1;jettySize=auto;html=1;exitX=0.75;exitY=0;exitDx=0;exitDy=0;" parent="1" source="wMOnWl37XSj11jP713QI-16" target="wMOnWl37XSj11jP713QI-15" edge="1">
          <mxGeometry relative="1" as="geometry">
            <mxPoint x="1013" y="643" as="targetPoint" />
          </mxGeometry>
        </mxCell>
        <mxCell id="tx2Wy5a_AxNPYO6ndvp1-1" value="&lt;span style=&quot;font-weight: 400;&quot;&gt;Power Management&lt;/span&gt;" style="rounded=0;whiteSpace=wrap;html=1;fontStyle=1" parent="1" vertex="1">
          <mxGeometry x="666" y="420" width="120" height="60" as="geometry" />
        </mxCell>
        <mxCell id="z3xZdLynoYUoiguRZ6o--1" value="GPIO" style="rounded=0;whiteSpace=wrap;html=1;" parent="1" vertex="1">
          <mxGeometry x="942" y="500" width="120" height="30" as="geometry" />
        </mxCell>
        <mxCell id="z3xZdLynoYUoiguRZ6o--2" style="edgeStyle=orthogonalEdgeStyle;rounded=0;orthogonalLoop=1;jettySize=auto;html=1;entryX=0.231;entryY=0;entryDx=0;entryDy=0;entryPerimeter=0;" parent="1" source="z3xZdLynoYUoiguRZ6o--3" edge="1">
          <mxGeometry relative="1" as="geometry">
            <mxPoint x="1048" y="500" as="targetPoint" />
          </mxGeometry>
        </mxCell>
        <mxCell id="z3xZdLynoYUoiguRZ6o--3" value="E-Ink Light" style="rounded=0;whiteSpace=wrap;html=1;" parent="1" vertex="1">
          <mxGeometry x="1006" y="350" width="85" height="40" as="geometry" />
        </mxCell>
        <mxCell id="z3xZdLynoYUoiguRZ6o--11" value="If we go the PIO route here. We just need to put data pins in line, and control pins in line." style="shape=note;whiteSpace=wrap;html=1;backgroundOutline=1;fontColor=#000000;darkOpacity=0.05;fillColor=#FFF9B2;strokeColor=none;fillStyle=solid;direction=west;gradientDirection=north;gradientColor=#FFF2A1;shadow=1;size=20;pointerEvents=1;" parent="1" vertex="1">
          <mxGeometry x="1520" y="533" width="150" height="90" as="geometry" />
        </mxCell>
        <mxCell id="z3xZdLynoYUoiguRZ6o--12" value="If we do choose SPI for SD. It should be on another BUS than the screen." style="shape=note;whiteSpace=wrap;html=1;backgroundOutline=1;fontColor=#000000;darkOpacity=0.05;fillColor=#FFF9B2;strokeColor=none;fillStyle=solid;direction=west;gradientDirection=north;gradientColor=#FFF2A1;shadow=1;size=20;pointerEvents=1;" parent="1" vertex="1">
          <mxGeometry x="1180" y="380" width="140" height="80" as="geometry" />
        </mxCell>
        <mxCell id="iLwx1BD44I-eFol4IrJl-1" value="Can we use the same battery for the RTC as the device? Maybe better practice for RTC to have dedicated batter?" style="shape=note;whiteSpace=wrap;html=1;backgroundOutline=1;fontColor=#000000;darkOpacity=0.05;fillColor=#FFF9B2;strokeColor=none;fillStyle=solid;direction=west;gradientDirection=north;gradientColor=#FFF2A1;shadow=1;size=20;pointerEvents=1;" parent="1" vertex="1">
          <mxGeometry x="470" y="687.5" width="210" height="120" as="geometry" />
        </mxCell>
      </root>
    </mxGraphModel>
  </diagram>
  <diagram id="SJFi7MKumW1ktK8oSeol" name="Power path">
    <mxGraphModel dx="1912" dy="1115" grid="1" gridSize="10" guides="1" tooltips="1" connect="1" arrows="1" fold="1" page="1" pageScale="1" pageWidth="1700" pageHeight="1100" math="0" shadow="0">
      <root>
        <mxCell id="0" />
        <mxCell id="1" parent="0" />
        <mxCell id="m2KU7UxuGeEaF3Yhpwbi-6" value="RP2040 GPIO" style="edgeStyle=orthogonalEdgeStyle;rounded=0;orthogonalLoop=1;jettySize=auto;html=1;endArrow=none;endFill=0;" parent="1" source="m2KU7UxuGeEaF3Yhpwbi-2" edge="1">
          <mxGeometry relative="1" as="geometry">
            <mxPoint x="1310" y="501" as="targetPoint" />
          </mxGeometry>
        </mxCell>
        <mxCell id="m2KU7UxuGeEaF3Yhpwbi-2" value="FET" style="rounded=0;whiteSpace=wrap;html=1;" parent="1" vertex="1">
          <mxGeometry x="1250" y="341" width="120" height="60" as="geometry" />
        </mxCell>
        <mxCell id="m2KU7UxuGeEaF3Yhpwbi-3" value="3V3_SYS" style="text;html=1;align=center;verticalAlign=middle;whiteSpace=wrap;rounded=0;" parent="1" vertex="1">
          <mxGeometry x="1380" y="340" width="60" height="30" as="geometry" />
        </mxCell>
        <mxCell id="m2KU7UxuGeEaF3Yhpwbi-4" style="edgeStyle=orthogonalEdgeStyle;rounded=0;orthogonalLoop=1;jettySize=auto;html=1;strokeWidth=4;" parent="1" edge="1">
          <mxGeometry relative="1" as="geometry">
            <mxPoint x="1470" y="370" as="targetPoint" />
            <mxPoint x="1370" y="370" as="sourcePoint" />
          </mxGeometry>
        </mxCell>
        <mxCell id="m2KU7UxuGeEaF3Yhpwbi-5" value="e-ink display light" style="rounded=0;whiteSpace=wrap;html=1;" parent="1" vertex="1">
          <mxGeometry x="1470" y="340" width="120" height="60" as="geometry" />
        </mxCell>
        <mxCell id="m2KU7UxuGeEaF3Yhpwbi-7" value="Would we run into current issues when charging the battery at the same time as running evrything?&lt;br&gt;&lt;br&gt;- DS3-9 we&#39;ll need to put together a system power budget to see how much power in we&#39;ll need. battery charger ic will only charge with power leftover from system" style="shape=note;whiteSpace=wrap;html=1;backgroundOutline=1;fontColor=#000000;darkOpacity=0.05;fillColor=#FFF9B2;strokeColor=none;fillStyle=solid;direction=west;gradientDirection=north;gradientColor=#FFF2A1;shadow=1;size=20;pointerEvents=1;" parent="1" vertex="1">
          <mxGeometry x="85" y="570" width="220" height="190" as="geometry" />
        </mxCell>
        <mxCell id="iQKmC827vp9OKKHtGp0N-1" value="Switch to turn off completely?&lt;br&gt;&lt;br&gt;-DS3-9 we could use a fet as drawn, or efuse such as&amp;nbsp;TPS1641" style="shape=note;whiteSpace=wrap;html=1;backgroundOutline=1;fontColor=#000000;darkOpacity=0.05;fillColor=#FFF9B2;strokeColor=none;fillStyle=solid;direction=west;gradientDirection=north;gradientColor=#FFF2A1;shadow=1;size=20;pointerEvents=1;" parent="1" vertex="1">
          <mxGeometry x="90" y="820" width="210" height="100" as="geometry" />
        </mxCell>
        <mxCell id="rpv0lTNpwyjbtqdsIo0O-1" style="edgeStyle=orthogonalEdgeStyle;rounded=0;orthogonalLoop=1;jettySize=auto;html=1;entryX=0;entryY=0.25;entryDx=0;entryDy=0;fillColor=#1ba1e2;strokeColor=#006EAF;strokeWidth=4;exitX=1;exitY=0.5;exitDx=0;exitDy=0;" edge="1" parent="1" source="rpv0lTNpwyjbtqdsIo0O-7">
          <mxGeometry relative="1" as="geometry">
            <mxPoint x="595" y="688" as="sourcePoint" />
            <mxPoint x="830" y="808.75" as="targetPoint" />
            <Array as="points">
              <mxPoint x="680" y="780" />
              <mxPoint x="680" y="809" />
            </Array>
          </mxGeometry>
        </mxCell>
        <mxCell id="rpv0lTNpwyjbtqdsIo0O-2" value="5V0_USB" style="text;html=1;align=center;verticalAlign=middle;whiteSpace=wrap;rounded=0;" vertex="1" parent="1">
          <mxGeometry x="710" y="780" width="60" height="30" as="geometry" />
        </mxCell>
        <mxCell id="rpv0lTNpwyjbtqdsIo0O-3" value="3V3_SYS" style="text;html=1;align=center;verticalAlign=middle;whiteSpace=wrap;rounded=0;" vertex="1" parent="1">
          <mxGeometry x="1020" y="780" width="60" height="30" as="geometry" />
        </mxCell>
        <mxCell id="rpv0lTNpwyjbtqdsIo0O-4" style="edgeStyle=orthogonalEdgeStyle;rounded=0;orthogonalLoop=1;jettySize=auto;html=1;strokeWidth=4;fillColor=#fa6800;strokeColor=#C73500;" edge="1" parent="1">
          <mxGeometry relative="1" as="geometry">
            <mxPoint x="1110" y="810" as="targetPoint" />
            <mxPoint x="1010" y="810" as="sourcePoint" />
          </mxGeometry>
        </mxCell>
        <mxCell id="rpv0lTNpwyjbtqdsIo0O-5" value="" style="group" vertex="1" connectable="0" parent="1">
          <mxGeometry x="500" y="750" width="140" height="60" as="geometry" />
        </mxCell>
        <mxCell id="rpv0lTNpwyjbtqdsIo0O-6" value="&amp;nbsp; &amp;nbsp;USB-C 2.0 &lt;br&gt;&amp;nbsp; &amp;nbsp;Receptacle" style="rounded=0;whiteSpace=wrap;html=1;align=left;" vertex="1" parent="rpv0lTNpwyjbtqdsIo0O-5">
          <mxGeometry width="140" height="60" as="geometry" />
        </mxCell>
        <mxCell id="rpv0lTNpwyjbtqdsIo0O-7" value="VBUS" style="whiteSpace=wrap;html=1;aspect=fixed;" vertex="1" parent="rpv0lTNpwyjbtqdsIo0O-5">
          <mxGeometry x="100" y="10" width="40" height="40" as="geometry" />
        </mxCell>
        <mxCell id="rpv0lTNpwyjbtqdsIo0O-8" style="edgeStyle=orthogonalEdgeStyle;rounded=0;orthogonalLoop=1;jettySize=auto;html=1;fillColor=#1ba1e2;strokeColor=#006EAF;strokeWidth=4;exitX=1;exitY=0.5;exitDx=0;exitDy=0;entryX=0;entryY=0.5;entryDx=0;entryDy=0;" edge="1" parent="1" source="rpv0lTNpwyjbtqdsIo0O-14" target="rpv0lTNpwyjbtqdsIo0O-11">
          <mxGeometry relative="1" as="geometry">
            <mxPoint x="485" y="208" as="sourcePoint" />
            <mxPoint x="680" y="330" as="targetPoint" />
            <Array as="points">
              <mxPoint x="680" y="300" />
              <mxPoint x="680" y="345" />
            </Array>
          </mxGeometry>
        </mxCell>
        <mxCell id="rpv0lTNpwyjbtqdsIo0O-9" value="Rechargeable battery" style="rounded=0;whiteSpace=wrap;html=1;align=center;" vertex="1" parent="1">
          <mxGeometry x="1010" y="190" width="100" height="50" as="geometry" />
        </mxCell>
        <mxCell id="rpv0lTNpwyjbtqdsIo0O-10" value="5V0_USB" style="text;html=1;align=center;verticalAlign=middle;whiteSpace=wrap;rounded=0;" vertex="1" parent="1">
          <mxGeometry x="580" y="270" width="60" height="30" as="geometry" />
        </mxCell>
        <mxCell id="rpv0lTNpwyjbtqdsIo0O-11" value="USB C Controller&lt;br&gt;&lt;br&gt;TPS25750 &lt;br&gt;(max 20V 100W)&lt;br&gt;&amp;nbsp;or&amp;nbsp;&lt;br&gt;TUSB320LAI &lt;br&gt;(max 5V 15W)&lt;br&gt;&lt;br&gt;?&amp;nbsp;" style="rounded=0;whiteSpace=wrap;html=1;" vertex="1" parent="1">
          <mxGeometry x="720" y="270" width="150" height="150" as="geometry" />
        </mxCell>
        <mxCell id="rpv0lTNpwyjbtqdsIo0O-12" value="" style="group" vertex="1" connectable="0" parent="1">
          <mxGeometry x="390" y="270" width="140" height="60" as="geometry" />
        </mxCell>
        <mxCell id="rpv0lTNpwyjbtqdsIo0O-13" value="&amp;nbsp; &amp;nbsp;USB-C 2.0 &lt;br&gt;&amp;nbsp; &amp;nbsp;Receptacle" style="rounded=0;whiteSpace=wrap;html=1;align=left;" vertex="1" parent="rpv0lTNpwyjbtqdsIo0O-12">
          <mxGeometry width="140" height="60" as="geometry" />
        </mxCell>
        <mxCell id="rpv0lTNpwyjbtqdsIo0O-14" value="VBUS" style="whiteSpace=wrap;html=1;aspect=fixed;" vertex="1" parent="rpv0lTNpwyjbtqdsIo0O-12">
          <mxGeometry x="100" y="10" width="40" height="40" as="geometry" />
        </mxCell>
        <mxCell id="rpv0lTNpwyjbtqdsIo0O-15" style="edgeStyle=orthogonalEdgeStyle;rounded=0;orthogonalLoop=1;jettySize=auto;html=1;strokeWidth=4;fillColor=#60a917;strokeColor=#2D7600;" edge="1" parent="1">
          <mxGeometry relative="1" as="geometry">
            <mxPoint x="970" y="350" as="targetPoint" />
            <mxPoint x="870" y="350" as="sourcePoint" />
          </mxGeometry>
        </mxCell>
        <mxCell id="rpv0lTNpwyjbtqdsIo0O-16" value="VBUS out" style="text;html=1;align=center;verticalAlign=middle;whiteSpace=wrap;rounded=0;" vertex="1" parent="1">
          <mxGeometry x="880" y="320" width="60" height="30" as="geometry" />
        </mxCell>
        <mxCell id="rpv0lTNpwyjbtqdsIo0O-17" style="edgeStyle=orthogonalEdgeStyle;rounded=0;orthogonalLoop=1;jettySize=auto;html=1;entryX=0.5;entryY=1;entryDx=0;entryDy=0;fillColor=#a20025;strokeColor=default;strokeWidth=4;endArrow=none;endFill=0;" edge="1" parent="1" target="rpv0lTNpwyjbtqdsIo0O-9">
          <mxGeometry relative="1" as="geometry">
            <mxPoint x="1060" y="300" as="sourcePoint" />
          </mxGeometry>
        </mxCell>
        <mxCell id="rpv0lTNpwyjbtqdsIo0O-18" style="edgeStyle=orthogonalEdgeStyle;rounded=0;orthogonalLoop=1;jettySize=auto;html=1;strokeWidth=4;fillColor=#fa6800;strokeColor=#C73500;" edge="1" parent="1">
          <mxGeometry relative="1" as="geometry">
            <mxPoint x="1250" y="364.5" as="targetPoint" />
            <mxPoint x="1150" y="364.5" as="sourcePoint" />
          </mxGeometry>
        </mxCell>
        <mxCell id="rpv0lTNpwyjbtqdsIo0O-19" value="3V3" style="text;html=1;align=center;verticalAlign=middle;whiteSpace=wrap;rounded=0;" vertex="1" parent="1">
          <mxGeometry x="1160" y="330" width="60" height="30" as="geometry" />
        </mxCell>
        <mxCell id="rpv0lTNpwyjbtqdsIo0O-20" value="" style="endArrow=none;dashed=1;html=1;rounded=0;" edge="1" parent="1">
          <mxGeometry width="50" height="50" relative="1" as="geometry">
            <mxPoint x="180" y="550" as="sourcePoint" />
            <mxPoint x="1580" y="550" as="targetPoint" />
          </mxGeometry>
        </mxCell>
        <mxCell id="rpv0lTNpwyjbtqdsIo0O-21" value="Flexible USB C Solution &lt;br&gt;(max 15W or 100W)" style="text;html=1;align=center;verticalAlign=middle;whiteSpace=wrap;rounded=0;fontSize=23;fontStyle=1" vertex="1" parent="1">
          <mxGeometry x="440" y="140" width="260" height="70" as="geometry" />
        </mxCell>
        <mxCell id="rpv0lTNpwyjbtqdsIo0O-22" value="500mA USB 2.0 Solution (2.5W)" style="text;html=1;align=center;verticalAlign=middle;whiteSpace=wrap;rounded=0;fontSize=23;fontStyle=1" vertex="1" parent="1">
          <mxGeometry x="440" y="600" width="260" height="70" as="geometry" />
        </mxCell>
        <mxCell id="rpv0lTNpwyjbtqdsIo0O-23" value="Powerpath PMIC with battery changer or BAT charger with separate switcher&lt;br&gt;&lt;br&gt;LTC3553??&lt;div&gt;LTC3559??&lt;/div&gt;&lt;div&gt;BQ2407x+reg?&lt;br&gt;&lt;/div&gt;&lt;div&gt;MP2650+reg?MP2625B+reg?&lt;br&gt;&lt;/div&gt;&lt;div&gt;bq24070 +reg?&lt;br&gt;&lt;/div&gt;" style="rounded=0;whiteSpace=wrap;html=1;" vertex="1" parent="1">
          <mxGeometry x="970" y="300" width="180" height="150" as="geometry" />
        </mxCell>
        <mxCell id="rpv0lTNpwyjbtqdsIo0O-24" value="Powerpath PMIC with battery changer or BAT charger with separate switcher&lt;br&gt;&lt;br&gt;LTC3553??&lt;div&gt;LTC3559??&lt;/div&gt;&lt;div&gt;BQ2407x+reg?&lt;br&gt;&lt;/div&gt;&lt;div&gt;MP2650+reg?MP2625B+reg?&lt;br&gt;&lt;/div&gt;&lt;div&gt;bq24070 +reg?&lt;br&gt;&lt;/div&gt;" style="rounded=0;whiteSpace=wrap;html=1;" vertex="1" parent="1">
          <mxGeometry x="830" y="740" width="180" height="150" as="geometry" />
        </mxCell>
        <mxCell id="rpv0lTNpwyjbtqdsIo0O-25" value="Rechargeable battery" style="rounded=0;whiteSpace=wrap;html=1;align=center;" vertex="1" parent="1">
          <mxGeometry x="870" y="630" width="100" height="50" as="geometry" />
        </mxCell>
        <mxCell id="rpv0lTNpwyjbtqdsIo0O-26" style="edgeStyle=orthogonalEdgeStyle;rounded=0;orthogonalLoop=1;jettySize=auto;html=1;entryX=0.5;entryY=1;entryDx=0;entryDy=0;fillColor=#a20025;strokeColor=default;strokeWidth=4;endArrow=none;endFill=0;" edge="1" parent="1" target="rpv0lTNpwyjbtqdsIo0O-25">
          <mxGeometry relative="1" as="geometry">
            <mxPoint x="920" y="740" as="sourcePoint" />
          </mxGeometry>
        </mxCell>
        <mxCell id="rpv0lTNpwyjbtqdsIo0O-27" value="RP2040 GPIO" style="edgeStyle=orthogonalEdgeStyle;rounded=0;orthogonalLoop=1;jettySize=auto;html=1;endArrow=none;endFill=0;" edge="1" parent="1" source="rpv0lTNpwyjbtqdsIo0O-28">
          <mxGeometry relative="1" as="geometry">
            <mxPoint x="1170" y="941" as="targetPoint" />
          </mxGeometry>
        </mxCell>
        <mxCell id="rpv0lTNpwyjbtqdsIo0O-28" value="FET" style="rounded=0;whiteSpace=wrap;html=1;" vertex="1" parent="1">
          <mxGeometry x="1110" y="781" width="120" height="60" as="geometry" />
        </mxCell>
        <mxCell id="rpv0lTNpwyjbtqdsIo0O-29" value="3V3_SYS" style="text;html=1;align=center;verticalAlign=middle;whiteSpace=wrap;rounded=0;" vertex="1" parent="1">
          <mxGeometry x="1240" y="780" width="60" height="30" as="geometry" />
        </mxCell>
        <mxCell id="rpv0lTNpwyjbtqdsIo0O-30" style="edgeStyle=orthogonalEdgeStyle;rounded=0;orthogonalLoop=1;jettySize=auto;html=1;strokeWidth=4;" edge="1" parent="1">
          <mxGeometry relative="1" as="geometry">
            <mxPoint x="1330" y="810" as="targetPoint" />
            <mxPoint x="1230" y="810" as="sourcePoint" />
          </mxGeometry>
        </mxCell>
        <mxCell id="rpv0lTNpwyjbtqdsIo0O-31" value="e-ink display light" style="rounded=0;whiteSpace=wrap;html=1;" vertex="1" parent="1">
          <mxGeometry x="1330" y="780" width="120" height="60" as="geometry" />
        </mxCell>
      </root>
    </mxGraphModel>
  </diagram>
</mxfile>
